<?xml version="1.0" encoding="utf-8"?>
<!-- Generator: Adobe Illustrator 22.0.0, SVG Export Plug-In . SVG Version: 6.00 Build 0)  -->
<svg version="1.0" xmlns="http://www.w3.org/2000/svg" xmlns:xlink="http://www.w3.org/1999/xlink" x="0px" y="0px"
	 viewBox="0 0 270.6 100.4" enable-background="new 0 0 270.6 100.4" xml:space="preserve">
<g id="Capa_1">
	<g>
		<path fill="#F06A11" d="M17.8,72.6c-1.1,2.5-2.2,4.9-3.3,7.4H4l22.1-49.6L48.3,80H37.7c-1.1-2.5-2.2-4.9-3.3-7.4L17.8,72.6
			L17.8,72.6z M30.5,64l-4.3-10.1L21.9,64H30.5z"/>
		<path fill="#F06A11" d="M52,31.3h15.9c4.7,0,9.3,1.6,12.7,5s4.7,6.5,4.7,11.2V49c0,3.6-1,6.3-3.1,9.2s-3.8,3.8-7,5l11,17H74.3
			L61.8,61.1v19.1H52L52,31.3z M68.7,54.8c2,0,3.1-0.5,4.5-1.9s1.9-3.1,1.9-5.1c0-2-0.5-3.3-1.9-4.8s-4-2-6-2h-5.5v13.7L68.7,54.8z"
			/>
		<path fill="#F06A11" d="M114.2,31.2c3.4,0,6.6,0.6,9.6,1.9c3,1.3,5.6,3.1,7.9,5.3l-7,7c-2.9-2.9-6.4-4.4-10.4-4.4
			c-4.1,0-7.6,1.5-10.4,4.4s-4.3,6.4-4.3,10.4c0,4.1,1.5,7.6,4.3,10.4c2.9,2.9,6.4,4.3,10.4,4.3c3.2,0,6.1-0.9,8.6-2.8
			s4.3-4.2,5.3-7.1h-14v-9.8h14h5.7h4.5c0.3,1.5,0.5,3.2,0.5,4.9c0,6.8-2.4,12.6-7.3,17.4c-4.8,4.8-10.7,7.2-17.4,7.2
			s-12.6-2.4-17.4-7.2s-7.2-10.6-7.2-17.4s2.4-12.6,7.2-17.4S107.4,31.1,114.2,31.2L114.2,31.2z"/>
		<path fill="#F06A11" d="M183.3,38.4c4.8,4.8,7.3,10.7,7.3,17.4s-2.4,12.6-7.3,17.4s-10.7,7.2-17.4,7.2s-12.6-2.4-17.4-7.2
			s-7.2-10.6-7.2-17.4s2.4-12.6,7.2-17.4s10.6-7.3,17.4-7.3S178.5,33.5,183.3,38.4z M155.4,45.3c-2.9,2.9-4.3,6.4-4.3,10.4
			c0,4.1,1.5,7.6,4.3,10.4c2.9,2.9,6.4,4.3,10.4,4.3c4.1,0,7.5-1.5,10.4-4.3c2.9-2.9,4.4-6.4,4.4-10.4c0-4.1-1.5-7.5-4.4-10.4
			s-6.4-4.4-10.4-4.4C161.8,41,158.3,42.4,155.4,45.3z"/>
		<path fill="#F06A11" d="M194.2,65.5V48.4V31.4h9.8h7.3c4.7,0,8.7,1.7,12.1,5s5,7.4,5,12.1s-1.7,8.7-5,12s-7.4,5-12.1,5h-7.3v14.7
			h-9.8V65.5z M211.2,55.8c2,0,3.8-0.7,5.2-2.1s2.1-3.1,2.1-5.2c0-2-0.7-3.7-2.1-5.2s-3.1-2.2-5.2-2.2h-7.3v7.3v7.3L211.2,55.8z"/>
		<path fill="#F06A11" d="M242.4,31.4l8.4,15.5l8.4-15.5h11.1l-14.7,26.9v21.9H246V58.3l-14.6-26.9H242.4z"/>
	</g>
</g>
<g id="Capa_2">
</g>
</svg>
